<svg
    xmlns="http://www.w3.org/2000/svg"
    viewBox="0 0 100 100"
    fill="none"
  >
    <circle cx="50" cy="50" r="50" fill="#FFFFFF" />
    <g transform="translate(0, 0)">
      <path
        d="M38 20 H62 V60 H38 Z"
        stroke="#205072"
        strokeWidth="3"
      />
      <path d="M42 25 H48 V30 H42 Z" fill="#68B0AB" />
      <path d="M52 25 H58 V30 H52 Z" fill="#68B0AB" />
      <path d="M42 35 H48 V40 H42 Z" fill="#68B0AB" />
      <path d="M52 35 H58 V40 H52 Z" fill="#68B0AB" />
      <path d="M42 45 H48 V50 H42 Z" fill="#68B0AB" />
      <path d="M52 45 H58 V50 H52 Z" fill="#68B0AB" />
      <path
        d="M20 60 L35 45 L50 60 H20 Z"
        stroke="#205072"
        strokeWidth="3"
      />
      <path
        d="M22 60 H48 V75 H22 Z"
        stroke="#205072"
        strokeWidth="3"
      />
      <rect x="25" y="62" width="20" height="10" fill="#68B0AB" />
      <line x1="25" y1="65" x2="45" y2="65" stroke="#205072" strokeWidth="1" />
      <line x1="25" y1="68" x2="45" y2="68" stroke="#205072" strokeWidth="1" />
      <line x1="25" y1="71" x2="45" y2="71" stroke="#205072" strokeWidth="1" />
      <path
        d="M62 40 H75 V75 H62"
        stroke="#205072"
        strokeWidth="3"
        fill="rgba(32, 80, 114, 0.2)"
      />
       <path d="M65 45 H72 V50 H65 Z" fill="#68B0AB" />
      <path d="M68 30 L80 30" stroke="#205072" strokeWidth="2" />
      <path d="M72 30 L72 38" stroke="#205072" strokeWidth="2" />
      <path d="M76 30 L76 42" stroke="#205072" strokeWidth="2" />
      <path d="M70 34 L82 34" stroke="#205072" strokeWidth="2" />
      <path d="M74 38 L84 38" stroke="#205072" strokeWidth="2" />
       <path d="M15 75 L85 75" stroke="#205072" strokeWidth="3" />
    </g>
  </svg>